<svg xmlns="http://www.w3.org/2000/svg" xmlns:xlink="http://www.w3.org/1999/xlink" width="256" zoomAndPan="magnify" viewBox="0 0 192 30.000001" height="40" preserveAspectRatio="xMidYMid meet" version="1.0"><defs><g/></defs><g fill="#ffffff" fill-opacity="1"><g transform="translate(14.506514, 22.564179)"><g><path d="M 18.84375 0 L 13.34375 0 L 8.921875 -6.359375 L 4.515625 0 L -0.765625 0 L 6.296875 -10.0625 L 0.40625 -18.6875 L 5.484375 -18.6875 L 8.921875 -13.59375 L 12.375 -18.6875 L 17.671875 -18.6875 L 11.546875 -10.0625 Z M 18.84375 0 "/></g></g></g><g fill="#ffffff" fill-opacity="1"><g transform="translate(32.580976, 22.564179)"><g><path d="M 2.03125 -11.625 L 2.03125 -15.953125 L 6.046875 -15.953125 L 6.046875 -11.625 L 8.5 -11.625 L 8.5 -8.5625 L 6.046875 -8.5625 L 6.046875 -4.875 C 6.046875 -3.800781 6.347656 -3.265625 6.953125 -3.265625 C 7.109375 -3.265625 7.269531 -3.289062 7.4375 -3.34375 C 7.601562 -3.40625 7.726562 -3.46875 7.8125 -3.53125 L 7.953125 -3.625 L 8.953125 -0.390625 C 8.085938 0.0976562 7.101562 0.34375 6 0.34375 C 5.25 0.34375 4.597656 0.210938 4.046875 -0.046875 C 3.503906 -0.316406 3.09375 -0.675781 2.8125 -1.125 C 2.539062 -1.570312 2.34375 -2.039062 2.21875 -2.53125 C 2.09375 -3.019531 2.03125 -3.539062 2.03125 -4.09375 L 2.03125 -8.5625 L 0.359375 -8.5625 L 0.359375 -11.625 Z M 2.03125 -11.625 "/></g></g></g><g fill="#ffffff" fill-opacity="1"><g transform="translate(41.527603, 22.564179)"><g><path d="M 1.359375 0 L 1.359375 -11.625 L 5.375 -11.625 L 5.375 -9.953125 L 5.421875 -9.953125 C 5.441406 -10.003906 5.484375 -10.078125 5.546875 -10.171875 C 5.617188 -10.265625 5.769531 -10.421875 6 -10.640625 C 6.226562 -10.867188 6.46875 -11.070312 6.71875 -11.25 C 6.976562 -11.4375 7.3125 -11.601562 7.71875 -11.75 C 8.132812 -11.894531 8.550781 -11.96875 8.96875 -11.96875 C 9.40625 -11.96875 9.832031 -11.90625 10.25 -11.78125 C 10.675781 -11.65625 10.988281 -11.535156 11.1875 -11.421875 L 11.515625 -11.234375 L 9.828125 -7.84375 C 9.328125 -8.257812 8.632812 -8.46875 7.75 -8.46875 C 7.257812 -8.46875 6.84375 -8.363281 6.5 -8.15625 C 6.15625 -7.945312 5.910156 -7.691406 5.765625 -7.390625 C 5.617188 -7.085938 5.515625 -6.828125 5.453125 -6.609375 C 5.398438 -6.398438 5.375 -6.234375 5.375 -6.109375 L 5.375 0 Z M 1.359375 0 "/></g></g></g><g fill="#ffffff" fill-opacity="1"><g transform="translate(52.80715, 22.564179)"><g><path d="M 13.125 -5.25 L 4.6875 -5.25 C 4.6875 -4.4375 4.953125 -3.832031 5.484375 -3.4375 C 6.015625 -3.050781 6.585938 -2.859375 7.203125 -2.859375 C 7.847656 -2.859375 8.359375 -2.941406 8.734375 -3.109375 C 9.117188 -3.285156 9.550781 -3.628906 10.03125 -4.140625 L 12.9375 -2.703125 C 11.726562 -0.671875 9.71875 0.34375 6.90625 0.34375 C 5.15625 0.34375 3.648438 -0.253906 2.390625 -1.453125 C 1.140625 -2.660156 0.515625 -4.109375 0.515625 -5.796875 C 0.515625 -7.492188 1.140625 -8.945312 2.390625 -10.15625 C 3.648438 -11.363281 5.15625 -11.96875 6.90625 -11.96875 C 8.75 -11.96875 10.25 -11.429688 11.40625 -10.359375 C 12.5625 -9.296875 13.140625 -7.773438 13.140625 -5.796875 C 13.140625 -5.523438 13.132812 -5.34375 13.125 -5.25 Z M 4.796875 -7.46875 L 9.21875 -7.46875 C 9.125 -8.070312 8.882812 -8.535156 8.5 -8.859375 C 8.113281 -9.191406 7.617188 -9.359375 7.015625 -9.359375 C 6.359375 -9.359375 5.832031 -9.179688 5.4375 -8.828125 C 5.039062 -8.484375 4.828125 -8.03125 4.796875 -7.46875 Z M 4.796875 -7.46875 "/></g></g></g><g fill="#ffffff" fill-opacity="1"><g transform="translate(66.464914, 22.564179)"><g><path d="M 1.359375 0 L 1.359375 -11.625 L 5.375 -11.625 L 5.375 -10.40625 L 5.421875 -10.40625 C 6.460938 -11.445312 7.570312 -11.96875 8.75 -11.96875 C 9.59375 -11.96875 10.382812 -11.789062 11.125 -11.4375 C 11.863281 -11.09375 12.421875 -10.554688 12.796875 -9.828125 C 13.972656 -11.253906 15.257812 -11.96875 16.65625 -11.96875 C 17.894531 -11.96875 18.957031 -11.617188 19.84375 -10.921875 C 20.738281 -10.222656 21.1875 -9.132812 21.1875 -7.65625 L 21.1875 0 L 17.171875 0 L 17.171875 -6.5625 C 17.171875 -7.1875 17 -7.707031 16.65625 -8.125 C 16.320312 -8.539062 15.816406 -8.75 15.140625 -8.75 C 14.546875 -8.75 14.09375 -8.570312 13.78125 -8.21875 C 13.476562 -7.863281 13.3125 -7.4375 13.28125 -6.9375 L 13.28125 0 L 9.265625 0 L 9.265625 -6.5625 C 9.265625 -7.1875 9.09375 -7.707031 8.75 -8.125 C 8.414062 -8.539062 7.910156 -8.75 7.234375 -8.75 C 6.609375 -8.75 6.140625 -8.554688 5.828125 -8.171875 C 5.523438 -7.785156 5.375 -7.328125 5.375 -6.796875 L 5.375 0 Z M 1.359375 0 "/></g></g></g><g fill="#ffffff" fill-opacity="1"><g transform="translate(88.774865, 22.564179)"><g><path d="M 13.125 -5.25 L 4.6875 -5.25 C 4.6875 -4.4375 4.953125 -3.832031 5.484375 -3.4375 C 6.015625 -3.050781 6.585938 -2.859375 7.203125 -2.859375 C 7.847656 -2.859375 8.359375 -2.941406 8.734375 -3.109375 C 9.117188 -3.285156 9.550781 -3.628906 10.03125 -4.140625 L 12.9375 -2.703125 C 11.726562 -0.671875 9.71875 0.34375 6.90625 0.34375 C 5.15625 0.34375 3.648438 -0.253906 2.390625 -1.453125 C 1.140625 -2.660156 0.515625 -4.109375 0.515625 -5.796875 C 0.515625 -7.492188 1.140625 -8.945312 2.390625 -10.15625 C 3.648438 -11.363281 5.15625 -11.96875 6.90625 -11.96875 C 8.75 -11.96875 10.25 -11.429688 11.40625 -10.359375 C 12.5625 -9.296875 13.140625 -7.773438 13.140625 -5.796875 C 13.140625 -5.523438 13.132812 -5.34375 13.125 -5.25 Z M 4.796875 -7.46875 L 9.21875 -7.46875 C 9.125 -8.070312 8.882812 -8.535156 8.5 -8.859375 C 8.113281 -9.191406 7.617188 -9.359375 7.015625 -9.359375 C 6.359375 -9.359375 5.832031 -9.179688 5.4375 -8.828125 C 5.039062 -8.484375 4.828125 -8.03125 4.796875 -7.46875 Z M 4.796875 -7.46875 "/></g></g></g><g fill="#35d99f" fill-opacity="1"><g transform="translate(102.430938, 22.564179)"><g><path d="M 18.265625 -10.46875 L 18.265625 -6.40625 C 17.773438 -4.1875 16.710938 -2.503906 15.078125 -1.359375 C 13.453125 -0.222656 11.632812 0.34375 9.625 0.34375 C 7.101562 0.34375 4.953125 -0.597656 3.171875 -2.484375 C 1.398438 -4.378906 0.515625 -6.660156 0.515625 -9.328125 C 0.515625 -12.046875 1.382812 -14.34375 3.125 -16.21875 C 4.863281 -18.09375 7.03125 -19.03125 9.625 -19.03125 C 12.664062 -19.03125 15.066406 -17.96875 16.828125 -15.84375 L 14.046875 -12.78125 C 13.046875 -14.375 11.65625 -15.171875 9.875 -15.171875 C 8.5625 -15.171875 7.441406 -14.601562 6.515625 -13.46875 C 5.585938 -12.332031 5.125 -10.953125 5.125 -9.328125 C 5.125 -7.742188 5.585938 -6.390625 6.515625 -5.265625 C 7.441406 -4.140625 8.5625 -3.578125 9.875 -3.578125 C 10.96875 -3.578125 11.914062 -3.90625 12.71875 -4.5625 C 13.53125 -5.21875 13.9375 -6.09375 13.9375 -7.1875 L 9.625 -7.1875 L 9.625 -10.46875 Z M 18.265625 -10.46875 "/></g></g></g><g fill="#35d99f" fill-opacity="1"><g transform="translate(121.20754, 22.564179)"><g><path d="M 13.125 -5.25 L 4.6875 -5.25 C 4.6875 -4.4375 4.953125 -3.832031 5.484375 -3.4375 C 6.015625 -3.050781 6.585938 -2.859375 7.203125 -2.859375 C 7.847656 -2.859375 8.359375 -2.941406 8.734375 -3.109375 C 9.117188 -3.285156 9.550781 -3.628906 10.03125 -4.140625 L 12.9375 -2.703125 C 11.726562 -0.671875 9.71875 0.34375 6.90625 0.34375 C 5.15625 0.34375 3.648438 -0.253906 2.390625 -1.453125 C 1.140625 -2.660156 0.515625 -4.109375 0.515625 -5.796875 C 0.515625 -7.492188 1.140625 -8.945312 2.390625 -10.15625 C 3.648438 -11.363281 5.15625 -11.96875 6.90625 -11.96875 C 8.75 -11.96875 10.25 -11.429688 11.40625 -10.359375 C 12.5625 -9.296875 13.140625 -7.773438 13.140625 -5.796875 C 13.140625 -5.523438 13.132812 -5.34375 13.125 -5.25 Z M 4.796875 -7.46875 L 9.21875 -7.46875 C 9.125 -8.070312 8.882812 -8.535156 8.5 -8.859375 C 8.113281 -9.191406 7.617188 -9.359375 7.015625 -9.359375 C 6.359375 -9.359375 5.832031 -9.179688 5.4375 -8.828125 C 5.039062 -8.484375 4.828125 -8.03125 4.796875 -7.46875 Z M 4.796875 -7.46875 "/></g></g></g><g fill="#35d99f" fill-opacity="1"><g transform="translate(134.865304, 22.564179)"><g><path d="M 13.125 -5.25 L 4.6875 -5.25 C 4.6875 -4.4375 4.953125 -3.832031 5.484375 -3.4375 C 6.015625 -3.050781 6.585938 -2.859375 7.203125 -2.859375 C 7.847656 -2.859375 8.359375 -2.941406 8.734375 -3.109375 C 9.117188 -3.285156 9.550781 -3.628906 10.03125 -4.140625 L 12.9375 -2.703125 C 11.726562 -0.671875 9.71875 0.34375 6.90625 0.34375 C 5.15625 0.34375 3.648438 -0.253906 2.390625 -1.453125 C 1.140625 -2.660156 0.515625 -4.109375 0.515625 -5.796875 C 0.515625 -7.492188 1.140625 -8.945312 2.390625 -10.15625 C 3.648438 -11.363281 5.15625 -11.96875 6.90625 -11.96875 C 8.75 -11.96875 10.25 -11.429688 11.40625 -10.359375 C 12.5625 -9.296875 13.140625 -7.773438 13.140625 -5.796875 C 13.140625 -5.523438 13.132812 -5.34375 13.125 -5.25 Z M 4.796875 -7.46875 L 9.21875 -7.46875 C 9.125 -8.070312 8.882812 -8.535156 8.5 -8.859375 C 8.113281 -9.191406 7.617188 -9.359375 7.015625 -9.359375 C 6.359375 -9.359375 5.832031 -9.179688 5.4375 -8.828125 C 5.039062 -8.484375 4.828125 -8.03125 4.796875 -7.46875 Z M 4.796875 -7.46875 "/></g></g></g><g fill="#35d99f" fill-opacity="1"><g transform="translate(148.523069, 22.564179)"><g><path d="M 14.640625 -11.625 L 9.109375 -6.078125 L 15.171875 0 L 10.015625 0 L 5.375 -4.640625 L 5.375 0 L 1.359375 0 L 1.359375 -19.484375 L 5.375 -19.484375 L 5.375 -7.5625 L 9.421875 -11.625 Z M 14.640625 -11.625 "/></g></g></g><g fill="#35d99f" fill-opacity="1"><g transform="translate(163.154776, 22.564179)"><g><path d="M 10.171875 -11.625 L 14.796875 -11.625 L 5.65625 5.890625 L 1.046875 5.890625 L 5.046875 -1.8125 L -0.453125 -11.625 L 4.171875 -11.625 L 7.40625 -5.65625 Z M 10.171875 -11.625 "/></g></g></g></svg>